/* XPM */
static char *_377601da1124458d0f9ef9b06167f61SEHWz5Fq393Bdpwu[] = {
/* columns rows colors chars-per-pixel */
"16 16 47 1 ",
"  c #010101",
". c #060202",
"X c #020602",
"o c #020206",
"O c #060206",
"+ c #0A0202",
"@ c #0A0206",
"# c #130A06",
"$ c #3B050A",
"% c #4C060B",
"& c #540609",
"* c #880709",
"= c #A90708",
"- c #C2060C",
"; c #DB0203",
": c #D5050C",
"> c #DC060B",
", c #DB0A10",
"< c #EA0202",
"1 c #F20202",
"2 c #F60202",
"3 c #FA0202",
"4 c #FE0202",
"5 c #FA0602",
"6 c #FE0602",
"7 c #FE0206",
"8 c #FA060A",
"9 c #FA070F",
"0 c #EC1A1A",
"q c #F53839",
"w c #E34847",
"e c #F64446",
"r c #E7534F",
"t c #E85A57",
"y c #EA7B77",
"u c #D4B4B3",
"i c #EAAAA8",
"p c #F3A6A8",
"a c #E9C3C0",
"s c #E3D0CE",
"d c #D6F6F2",
"f c #ECF8F6",
"g c #F5FAFA",
"h c #F6FEFE",
"j c #FEFEFA",
"k c #FEFAFE",
"l c #FAFEFE",
/* pixels */
"    44. O64     ",
"  8,       $4   ",
" :@ 4     4 o7  ",
" 9  77rlq76  #  ",
"4   gkkkkkh l 4 ",
"4  1kjakwkk6k > ",
"  4lkkfsih;kk   ",
"  tl4kkkkku7k   ",
"O57p2-7y54lkl   ",
"6 e0qkkdkkkkk * ",
"4 lk<kkkkkkkk 4 ",
" %  kkkkkkk1    ",
" 4           3  ",
"  6X        3   ",
"    7=   &4     ",
"        +       "
};
