/* XPM */
static char *_b54a56027a14631e3aeeace60f0a8484yQj7Eg8Du0VsBYw[] = {
/* columns rows colors chars-per-pixel */
"32 32 107 2 ",
"   c #010101",
".  c #060202",
"X  c #020602",
"o  c #020206",
"O  c #060206",
"+  c #020606",
"@  c #0A0202",
"#  c #0A0206",
"$  c #02020A",
"%  c #02060A",
"&  c #06060A",
"*  c #02060E",
"=  c #07070E",
"-  c #1E0505",
";  c #130A06",
":  c #14050B",
">  c #1C050A",
",  c #22060C",
"<  c #350505",
"1  c #3B050A",
"2  c #4C060B",
"3  c #540609",
"4  c #5C0508",
"5  c #5C0A0C",
"6  c #670608",
"7  c #7C0609",
"8  c #880709",
"9  c #9E1A1C",
"0  c #A90708",
"q  c #AE090E",
"w  c #B60609",
"e  c #BE2522",
"r  c #C2060C",
"t  c #DB0203",
"y  c #DC0706",
"u  c #D5050C",
"i  c #DC060B",
"p  c #D40712",
"a  c #DB0A10",
"s  c #E40203",
"d  c #EA0202",
"f  c #EC060B",
"g  c #F20202",
"h  c #F60202",
"j  c #F20602",
"k  c #F60602",
"l  c #F60606",
"z  c #FA0202",
"x  c #FE0202",
"c  c #FA0602",
"v  c #FE0602",
"b  c #FA0206",
"n  c #FE0206",
"m  c #FA0606",
"M  c #FE0606",
"N  c #F4060C",
"B  c #FA060A",
"V  c #FE060A",
"C  c #FA070F",
"Z  c #FE060F",
"A  c #F40B0C",
"S  c #EA1113",
"D  c #EC1A1A",
"F  c #F4302B",
"G  c #ED2E34",
"H  c #E53F3D",
"J  c #F23133",
"K  c #F53839",
"L  c #E34847",
"P  c #F64446",
"I  c #E7534F",
"U  c #E85A57",
"Y  c #F05356",
"T  c #ED6160",
"R  c #F66064",
"E  c #E07271",
"W  c #EA7B77",
"Q  c #F2A39F",
"!  c #D4B4B3",
"~  c #EAAAA8",
"^  c #F3A6A8",
"/  c #EAB6AF",
"(  c #F3B0AD",
")  c #EABBB9",
"_  c #F5B7B8",
"`  c #E9C3C0",
"'  c #E3D0CE",
"]  c #F1D5CB",
"[  c #EDD2D1",
"{  c #CEE3DB",
"}  c #D6F6F2",
"|  c #EBEFED",
" . c #F0E1E0",
".. c #F8E1E1",
"X. c #F4EDED",
"o. c #F5F4ED",
"O. c #ECF8F6",
"+. c #E5FEFD",
"@. c #F5FAFA",
"#. c #F6FEFA",
"$. c #F6FEFE",
"%. c gray98",
"&. c #FAFEFA",
"*. c #FEFEFA",
"=. c #FAFAFE",
"-. c #FEFAFE",
";. c #FAFEFE",
/* pixels */
"                      v x x x x x x x l =                       ",
"                r x x x * .       O   v x x V                   ",
"            X x x =                       X x x >               ",
"          B x a                               1 x x             ",
"        M x %                                   X x c           ",
"      u x #       x O                   V x       o x n         ",
"    X x         j n h Y             7 -.B n           x ,       ",
"    x C         R n n n ;.I ;.;.X.K ..n n v n         ; x       ",
"  q x           A n $.;.-.-.-.-.-.-.-.*.h n x           n v     ",
"  x :           Q @.-.-.-.-.-.-.-.-.-.-.-.$.x   x ;.G     x     ",
"  x             @.-.-.E b | -.-.-.;.v d -.-.o.. &.J -.    z 7   ",
"v x           g -.-.-.*.-.` -.-.-.L -.-.-.-.;.x #.-.[     i x   ",
"x &           $.-.-.Q -.-.-.-.) =.-.-.-.9 g -.-.%.-.p     $ x   ",
"x       < M Z ;.-.-.$.-.U O.v ' m ~  .$.-.t -.-._ -.(       x   ",
"x       ;.-.-.n -.-.-.-.-.;.-.-.-.&.;.-.-.-.-.x x -.-.    o x   ",
"x       c U x ;.N x -.-.-.-.-.-.-.-.-.-.-.! b n ;.-.;.      x   ",
"x     - -.-.-.Y -.n n m x g e n n e x B n n s ;.-.-.N       x   ",
"x O   z ;.n K ^ -.h ;.r n M n W / c n x } ;.-.-.-.;..       x   ",
"x +   0 -.] $.$.c F ;.-.-.-.H h h z -.-.-.-.-.-.-.*.o       x . ",
"x v     X.P [ D j K *.-.-.-.-.} { -.-.-.-.-.-.-.-.-.4     8 x   ",
"$ x     +.k T ;.-.;.&.-.-.-.-.-.-.-.-.-.-.-.-.-.-.;.      x y   ",
"  x     n ;.-.-.;.d -.-.-.-.-.-.-.-.-.-.-.-.-.-.-.-.      x     ",
"  M x     V g h -.-.-.-.-.-.-.-.-.-.-.-.-.-.-.-.-.o     x x     ",
"    x 2         S -.-.-.-.-.-.-.-.-.-.-.-.-.*.g         x       ",
"    o x o           f h  .-.-.-.-.-.;.T x 6           z f       ",
"      x x                   o                       x z         ",
"        k z                                       x n o         ",
"          v x X                                 m z             ",
"            5 x z                           x z M               ",
"                x x x 0               3 b x z                   ",
"                    w M x x x x x x x x M X                     ",
"                                  @                             "
};
