/* XPM */
static char *_647ec456dbd43c2946a5ba54a038456ihwJTqw8D7ttwkT1[] = {
/* columns rows colors chars-per-pixel */
"64 64 187 2 ",
"   c #010101",
".  c #060202",
"X  c #020602",
"o  c #060602",
"O  c #020206",
"+  c #060206",
"@  c #020606",
"#  c #0A0202",
"$  c #0A0602",
"%  c #0A0206",
"&  c #0E0206",
"*  c #0E0606",
"=  c #020A05",
"-  c #02020A",
";  c #02060A",
":  c #06060A",
">  c #02060E",
",  c #07070E",
"<  c #020A0A",
"1  c #140505",
"2  c #1E0505",
"3  c #130A06",
"4  c #14050B",
"5  c #1C050A",
"6  c #2A0505",
"7  c #22060C",
"8  c #28070B",
"9  c #350505",
"0  c #3C0505",
"q  c #32060B",
"w  c #3B050A",
"e  c #450505",
"r  c #4D0405",
"t  c #4C060B",
"y  c #4E0A0C",
"u  c #540609",
"i  c #5C0508",
"p  c #5C0A0C",
"a  c #670608",
"s  c #7C0609",
"d  c #72080B",
"f  c #880709",
"g  c #88090F",
"h  c #96060A",
"j  c #9F080B",
"k  c #9E1A1C",
"l  c #A90708",
"z  c #AE090E",
"x  c #BF0706",
"c  c #B60609",
"v  c #BA0A10",
"b  c #B12723",
"n  c #BE2522",
"m  c #B53332",
"M  c #C40303",
"N  c #CD0A05",
"B  c #C2060C",
"V  c #CC050B",
"C  c #C30A0B",
"Z  c #CC0A0B",
"A  c #D40304",
"S  c #DB0203",
"D  c #DC0706",
"F  c #D5050C",
"G  c #DC060B",
"H  c #D40A0C",
"J  c #D40712",
"K  c #DB0A10",
"L  c #DE191B",
"P  c #E40203",
"I  c #E70606",
"U  c #EA0202",
"Y  c #EE0202",
"T  c #EE0606",
"R  c #E4060D",
"E  c #EE0209",
"W  c #EC060B",
"Q  c #EC0C0C",
"!  c #F20202",
"~  c #F60202",
"^  c #F20602",
"/  c #F60602",
"(  c #F60207",
")  c #F20606",
"_  c #F60606",
"`  c #FA0202",
"'  c #FE0202",
"]  c #FA0602",
"[  c #FE0602",
"{  c #FA0206",
"}  c #FE0206",
"|  c #FA0606",
" . c #FE0606",
".. c #F50A04",
"X. c #FC0A04",
"o. c #F4060C",
"O. c #FA020A",
"+. c #FE020A",
"@. c #FA060A",
"#. c #FE020E",
"$. c #FE060F",
"%. c #F40B0C",
"&. c #FD0B0B",
"*. c #FD0A13",
"=. c #EA1113",
"-. c #EC1A1A",
";. c #F41213",
":. c #F5171A",
">. c #EB2020",
",. c #E82729",
"<. c #F82022",
"1. c #F52629",
"2. c #E5312F",
"3. c #F4302B",
"4. c #ED2E34",
"5. c #E53F3D",
"6. c #EC3938",
"7. c #F23133",
"8. c #F53839",
"9. c #F13E40",
"0. c #BC4544",
"q. c #B55A59",
"w. c #B87370",
"e. c #E34847",
"r. c #F64446",
"t. c #E7534F",
"y. c #E85A57",
"u. c #F05356",
"i. c #DC6563",
"p. c #ED6160",
"a. c #EB6768",
"s. c #F66064",
"d. c #F46869",
"f. c #E07271",
"g. c #EA7B77",
"h. c #F47073",
"j. c #F47979",
"k. c #B88684",
"l. c #E18283",
"z. c #EF8081",
"x. c #EC8787",
"c. c #F39797",
"v. c #F2A39F",
"b. c #EF9DA1",
"n. c #C3A1A0",
"m. c #D4B4B3",
"M. c #EAAAA8",
"N. c #F3A6A8",
"B. c #EAB6AF",
"V. c #F3B0AD",
"C. c #ECAFB1",
"Z. c #F4AAB0",
"A. c #EABBB9",
"S. c #F5B7B8",
"D. c #CEC5C3",
"F. c #C3CEC9",
"G. c #E9C3C0",
"H. c #EDC9C6",
"J. c #F5C1C1",
"K. c #F3CBCB",
"L. c #E3D0CE",
"P. c #F1D5CB",
"I. c #EDD2D1",
"U. c #F4D3D4",
"Y. c #F5DBD9",
"T. c #CEE3DB",
"R. c #D6F6F2",
"E. c #EAE8E4",
"W. c #EBEFED",
"Q. c #F0E1E0",
"!. c #F8E1E1",
"~. c #F4EDED",
"^. c #F5F4ED",
"/. c #ECF8F6",
"(. c #E5FEFD",
"). c #F4F5F4",
"_. c #FCFDF6",
"`. c #F5FAFA",
"'. c #F6FEFA",
"]. c #F1FEFE",
"[. c #F6FEFE",
"{. c gray98",
"}. c #FAFEFA",
"|. c #FEFEFA",
" X c #FAFAFE",
".X c #FEFAFE",
"XX c #FAFEFE",
/* pixels */
"                                                  : h @.} [ ' ' ' } ' &.x 6                                                     ",
"                                            H [ O.' ' ' ' ' ' ' ' ' ' ' ' ' ` _ @.,                                             ",
"                                      d [ ` ' ' ' ' ' ' ' ' *.@.&. .' ' ' ' ' ' ' ' / N +                                       ",
"                                  B ` ' ' ' ' ' c > O . O   .       o + O   d [ ' ' ' ' ' @.                                    ",
"                              a ^ ' ' ' ' g O #                                 . 7 [ ' ' ' ' | +                               ",
"                          X ' ' ' ' ' , #                                           O X  .' ' ' ` 5                             ",
"                        y ( ' ' ' 4 o                                                     @ ' ' ' ' *..                         ",
"                      @.) ' ' K %                                                             w ( ' ' '                         ",
"                    [ ( ' '   o                                                                 O [ ' ` ] O                     ",
"                   ./ ' ' ;                                                                       X $.' ' ]                     ",
"                } ` '  .&                                                         .                   C ' ` /                   ",
"              F { '  .%             [ ' } +                                   .   @.' ' @             O z ' ' }                 ",
"            1 ) ' ' %             X.Y.:.XXN.} O                               @.8..Xu.u.'                 @.' ' $.              ",
"          X { ' '                 ^ @.} ' ~ .Xu.&.                        s Y .X;.@. .} [.                  ' ' } 7             ",
"          } ' ' *                 ]._ } } } ..b.XX' O       + -         @.A..X' } } } | b.s                 O ' ' ' O           ",
"        0 ' ' *.o               1 s.} } } } } } ,.XX3.t.G.XX[.XX[.~.x.8.XX!.X.} } } } [ s.}                 O 3 ` '  .          ",
"        / ' ' +                 f %.} } } } ' A..X.X.X.X.X.X.X.X.X.X.X.X.XXX[.Y } } } } _ '                     @.' '           ",
"      z ' ' 5                   s %.} } ' [._.XX.X.X.X.X.X.X.X.X.X.X.X.X.X.X.X|.[.~ } } ' '                     O { ' [         ",
"      ' ' ' .                   s 8.} >..X.X.X.X.X.X.X.X.X.X.X.X.X.X.X.X.X.X.X.X.X.XC. .' '           2 &         A ' `         ",
"    u ' ' 4                     u v.J.`..X.X.X.X.X.X.X.X.X.X.X.X.X.X.X.X.X.X.X.X.X.X.X[.' '       ' A.XXR.4.*.      } ' }       ",
"    [ ' ' +                     d [..X.X.X.X.X.X.X.X.X.X.X.X.X.X.X.X.X.X.X.X.X.X.X.X.X.X[.'     [ ].XX4.t.XX]       } ' {       ",
"    ` ' x                       ! `..X.X.X.XXXf.' { ' W..X.X.X.X.X.X.XXX' [ ` U .X.X.X.X.X^.R . ' }..X7.z..X9.      O ` ' s     ",
"  l ' ' O                     @.XX.X.X.X.X.X` 2.XXXXb. .~..X.X.X.X.X.Xo.i..X.XH.` '..X.X.XXX>.  ' XX|.[.E.XXS.+     o ' ' '     ",
"  [ ' ' $                     ! XX.X.X.X.X.X}.|..X.X.XG.G..X.X.X.X.XXXe.XX.X.X.X X.X.X.X.XXX.X' ' '..X.X.XI. .        G ' '     ",
"  ' ' R                     r XX.X.X.X! ' -.}..X.X.X.X.X.X.X~ | ` XX.X.X.X.X.X.XXXP 4.z.]..X.XH.<..X.X.XXXa             } ` +   ",
"- ' ' :                     E [..X.X.X.Xz.v. X.XXX.X.X.X.X.X|.A..X X.X.X.X.X.X.XXXk ' ! .X.X.X.X' {..X.X.XJ           - ' ' B   ",
"i ' ' O                     ' |..X.X.X5..XU.[.].[..X.X.X.X.Xb.[ P .XXX.X.X.X.XY _.U Q XXXX.X.XXX` J..X.X.X'             ' ' '   ",
"I ' '             9 [ ' ' $.' XX.X.X.X.X' [.{..X' y.XX/.>.[ ' L.! | ~ M..XQ.' [..X.X[.S XX.X.X.Xj.S..X.X.XV.            ' ' '   ",
" .' '           l -.[.XX[.[.} ' .X.X.X.X XXX.X.X.X=.~ ~ ,.[..XXX.XXXa.! ' ` ]. X.X.X.X XXX.X.X|.' 5.|..X.XXXz .         S ' ' O ",
"' ' }           } [.' .Xs..X3.} ' .X.X.X.X.X.X.X.X.XXXXX|..X.X.X.X.X.X}..XXXXX.X.X.X.X.X.X.X.X' ] ' XX.X.X.XP         O h ' '   ",
"[ ' #.          1.:.` XX' }.' W.' } w..X.X.X.X.X.X.X.X.X.X.X.X.X.X.X.X.X.X.X.X.X.X.X.X.X.Xk. ._ } Y XX.X.X.Xx           i ' `   ",
"} ' }           @.] '.y.I.' ~ XX|.o.| ' m..X.X.X.X.X.X.X.X.X.X.X.X.XXX.X.X.X.X.X.X.X.Xm.' { } } ' XX.X.X.XXXr           0 ' `   ",
"} ' }            .} ' _ ' i..XXXXX|.' } [ | P D..X.X|.XXXX.X.X0.A C .XXXXX.X.X.XD.U | | } }  .b XXXX.X.XXXY             u ' '   ",
"} ' [         2 M..XXX.X.X.X.Xu.>..X^.} } } } | | ' ' ! b n } } } }  .n ! ' ' @.} } } }  .P .XXX.X.X.X.XXXo.            d [ '   ",
"} ' ' O       V .X.XXX.XXX~ [.` [..X.X` q.' } [ } } } } } ' A.L ' h.l./ } } } } } [ ' i..XXX.X.X.X.X.XXX&..             V ' '   ",
"} ' ' +       ` XXXX' } XX8.' N.! .X.X~ XXXX(.B ' } }  .[ } '.g.~ B.! ] } } } ' M R.XXXX.X.X.X.X.X.X.XXX@..             ' ' '   ",
"f ' '         { |..X` } .X{ u.-.[.|..X[.c..X.X.X|..XT.d.L  .).XX` c.`.] m F..X}.}..X.X.X.X.X.X.X.X.X.X|.~             O ' ' ' O ",
"- ' ' @       l XX.X~ P.%.[.XX[.Q ] Z.3.` XX.X.X.X.X.X.X.X5.~ ~ _ ~ ` ` |..X.X.X.X.X.X.X.X.X.X.X.X.X.X|.Q.O             ' ' ( . ",
"  ` ' l       8 Y.|.XXXX~.=.6.` s.` ' ` ' XX.X.X.X.X.X.X.X.X` } } } ' .X.X.X.X.X.X.X.X.X.X.X.X.X.X.X.X.XXX9             ' ` q O ",
"  ' ' [         / ~.E.r.O.I.' -.h.^ c.8.~ |..X.X.X.X.X.X.X.X|.R.n.T.}..X.X.X.X.X.X.X.X.X.X.X.X.X.X.X.X.X.Xi           f { '     ",
"  T ' '         } h.' XX[ b.` XXa.[..X.X' .X.X.X.X.X.X.X.X.X.X.X.X.X.X.X.X.X.X.X.X.X.X.X.X.X.X.X.X.X.X.X.X9         O ' ' }     ",
"  - ' ' t       c (.' / z.p.XXXX.X.X.XXX` }..X.X.X.X.X.X.X.X.X.X.X.X.X.X.X.X.X.X.X.X.X.X.X.X.X.X.X.X.XXX~.            ' ' D     ",
"    ] ' '       O } j.].}..X.X.X.X.XXXh.W..X.X.X.X.X.X.X.X.X.X.X.X.X.X.X.X.X.X.X.X.X.X.X.X.X.X.X.X.X.X.X~ X         l / ' +     ",
"    N ' '         } h.XX.X.X.X.X.XXXQ.U }..X.X.X.X.X.X.X.X.X.X.X.X.X.X.X.X.X.X.X.X.X.X.X.X.X.X.X.X.X.X.X*.          ' ' '       ",
"    - ` ' @..     O @.b.XX.X.X.X.XY 2.|..X.X.X.X.X.X.X.X.X.X.X.X.X.X.X.X.X.X.X.X.X.X.X.X.X.X.X.X.XXXXX` O         w ' ' e       ",
"       .' ' ;       . @.' ! ` ~ 1..XXX.X.X.X.X.X.X.X.X.X.X.X.X.X.X.X.X.X.X.X.X.X.X.X.X.X.X.X.X.XXX.X` O           ' ' '         ",
"        ' '  .          O   o ' XX.X.X.X.X.X.X.X.X.X.X.X.X.X.X.X.X.X.X.X.X.X.X.X.X.X.X.X.X.XXX.XXX[ X           h ' ' u         ",
"        T ' ' t                 @.=.XX.X.X.X.X.X.X.X.X.X.X.X.X.X.X.X.X.X.X.X.X.X.X.X.X.X.X|.[.! o.              { ' }           ",
"        O ' ' (                 +   _ ` K..X|.XX.X.X.X.X.X.X.X.X.X.X.X.X.X.XXX.XXX|..XXX3.} j O             . } ' ~ @           ",
"          O } ' [ O                 O   % W ' ~ s.Q.XX.X.X.X.X.X.X.X.X.X.XXXU.p.~ ' $.a                     R ` ' W             ",
"            G ' ' @.#                     O         2 a l Z K H H H V f u 1 O O   .   .                   e ' ' '               ",
"            . [ ` ' B                                     O                                             X ' ' ` -               ",
"                [ ` ` z                                                                                 ` ' { ;                 ",
"                O / ' ` o.                                                                          2 ' ' } ; +                 ",
"                    / ' ' } O                                                                   O v ' ' } :                     ",
"                      [ ' ' ' @                                                                 } ` ' ` <                       ",
"                      . @.' ' ~ @.+ .                                                       s } ' ' ' -                         ",
"                        o p ' ' ' ` l                                                   6 ' ' ` `  .                            ",
"                            O } ' ' ' { W O                                     -   s ' ' ' ' ' = .                             ",
"                                @ ' ' ' ' ' } l                               u } { ` ' ' ` s                                   ",
"                                    @ } ' ` ' ' ' ` '  .l r 2 * * 0 f T } ' ` ~ ' ' ' ' a .                                     ",
"                                          c ' ' ' ' ' ' ' ' ` ' ' ' ' ' ' ' ` ' '  .O X                                         ",
"                                                0 | ' ' ' ' ' ' ' ' ` ' ' +.d   X                                               ",
"                                                                      # .                                                       "
};
